<svg width="180" height="180" viewBox="0 0 80 80" xmlns="http://www.w3.org/2000/svg">
  <defs>
    <linearGradient id="wp-grad" x1="10" y1="10" x2="70" y2="70" gradientUnits="userSpaceOnUse">
      <stop offset="0%" stop-color="#22D3EE" />
      <stop offset="50%" stop-color="#3B82F6" />
      <stop offset="100%" stop-color="#7C3AED" />
    </linearGradient>
  </defs>
  <rect width="80" height="80" fill="#050810" />
  <path d="M8 14 L20 64 L32 30 L40 56 L40 14" stroke="url(#wp-grad)" stroke-width="8" stroke-linecap="round" stroke-linejoin="round" fill="none" />
  <path d="M40 14 L40 64 M40 14 L56 14 C66 14 72 21 72 31 C72 41 66 48 56 48 L48 48" stroke="url(#wp-grad)" stroke-width="8" stroke-linecap="round" stroke-linejoin="round" fill="none" />
  <g fill="#FFFFFF">
    <rect x="48" y="30" width="16" height="2.5" rx="1" />
    <rect x="47" y="27" width="2.5" height="9" rx="0.6" />
    <rect x="50" y="25" width="2" height="12" rx="0.5" />
    <rect x="63" y="25" width="2" height="12" rx="0.5" />
    <rect x="65.5" y="27" width="2.5" height="9" rx="0.6" />
  </g>
</svg>
